<?xml version="1.0" encoding="utf-8"?>
<!-- Generator: Adobe Illustrator 25.1.0, SVG Export Plug-In . SVG Version: 6.00 Build 0)  -->
<svg version="1.1" id="Layer_1" xmlns="http://www.w3.org/2000/svg" xmlns:xlink="http://www.w3.org/1999/xlink" x="0px" y="0px"
	 viewBox="0 0 206.3 206.6" style="enable-background:new 0 0 206.3 206.6;" xml:space="preserve">
<style type="text/css">
	.st0{fill:#231F20;}
</style>
<g>
	<path class="st0" d="M34,25.8l5.5,6.7c2.1,2.6,4.1,2.7,5.6,1.5c1.7-1.4,1.9-3.4-0.2-5.9l-5.5-6.7l1.5-1.2l5.4,6.6
		c2.8,3.5,2.2,6.4-0.3,8.4c-2.3,1.9-5.2,2-8-1.5L32.5,27L34,25.8z"/>
	<path class="st0" d="M48.5,23.4c-0.6-0.9-1-1.7-1.5-2.4l1.5-0.9l1,1.4l0,0c-0.1-1.1,0.5-2.6,2-3.5c1.3-0.7,3.6-1.2,5.5,1.9l3.2,5.4
		l-1.6,1l-3.1-5.2c-0.9-1.5-2.1-2.3-3.7-1.4c-1.1,0.6-1.5,1.9-1.2,3c0,0.3,0.2,0.6,0.3,0.8l3.3,5.4l-1.6,1L48.5,23.4z"/>
	<path class="st0" d="M58.8,11.2c0.3,0.6,0.1,1.3-0.6,1.6c-0.6,0.3-1.3,0-1.5-0.6c-0.3-0.6-0.1-1.3,0.6-1.6
		C57.8,10.3,58.5,10.5,58.8,11.2z M62.7,24.3l-4.5-9.5l1.7-0.8l4.5,9.5L62.7,24.3z"/>
	<path class="st0" d="M74.1,13.9c1.3,3.7-0.6,6.2-3,7.1c-2.7,1-5.5-0.2-6.6-3.4c-1.2-3.3,0.2-6.1,3-7.1C70.3,9.5,73,10.8,74.1,13.9z
		 M66.2,16.9c0.8,2.2,2.6,3.3,4.4,2.7c1.7-0.6,2.4-2.7,1.6-4.9c-0.6-1.7-2.2-3.5-4.4-2.7C65.8,12.7,65.6,15,66.2,16.9z"/>
	<path class="st0" d="M76.1,10.9c-0.2-1.1-0.5-1.9-0.7-2.8l1.7-0.4l0.5,1.7l0,0c0.3-1.1,1.3-2.3,3-2.7c1.4-0.3,3.8,0,4.6,3.6
		l1.4,6.1l-1.9,0.4l-1.3-5.9C83,9.3,82.1,8,80.3,8.4c-1.2,0.3-2,1.4-2.1,2.5c0,0.3,0,0.6,0.1,0.9l1.4,6.2l-1.9,0.4L76.1,10.9z"/>
	<path class="st0" d="M102.8,15.3c-0.4-0.4-0.8-0.8-1.4-1.4c-1.2,1.2-2.6,1.8-4.2,1.8c-2.9,0.1-4.6-1.8-4.6-4
		c-0.1-2,1.1-3.4,2.7-4.4l0-0.1c-0.8-0.9-1.3-2-1.3-3c-0.1-1.8,1.2-3.7,3.6-3.7c1.8-0.1,3.3,1.1,3.3,3c0,1.5-0.8,2.8-3.1,4l0,0.1
		c1.3,1.4,2.7,3,3.7,4c0.6-1,1.1-2.5,1.3-4.3l1.7-0.1c-0.3,2.3-0.9,4.2-2,5.5c0.8,0.8,1.6,1.6,2.5,2.5L102.8,15.3z M100.5,12.8
		c-0.9-0.9-2.6-2.7-4.3-4.5c-0.8,0.5-1.9,1.5-1.8,3c0.1,1.7,1.3,2.9,3.1,2.9C98.7,14.2,99.8,13.6,100.5,12.8z M95.7,4
		c0,1,0.5,1.8,1.2,2.6c1.5-0.9,2.4-1.7,2.4-2.9c0-0.9-0.6-1.9-1.8-1.8C96.3,1.8,95.7,2.9,95.7,4z"/>
	<path class="st0" d="M113,1.4c0.9,0,2.1,0,3.6,0.3c1.9,0.3,3.1,0.9,3.9,1.8c0.7,0.8,1,1.9,0.8,3.2c-0.2,1.3-0.8,2.3-1.6,2.9
		c-1.2,0.9-2.9,1.2-4.7,0.9c-0.6-0.1-1.1-0.2-1.5-0.4l-0.9,5.8l-1.9-0.3L113,1.4z M113.8,8.7c0.4,0.2,0.9,0.3,1.5,0.4
		c2.3,0.4,3.8-0.5,4.1-2.5c0.3-1.9-0.9-3.1-3-3.4c-0.8-0.1-1.5-0.2-1.8-0.1L113.8,8.7z"/>
	<path class="st0" d="M126.8,19.1l0.2-1.3l-0.1,0c-0.8,0.6-2.1,1.1-3.5,0.7c-2.1-0.6-2.7-2.3-2.3-3.8c0.7-2.5,3.2-3.2,7.2-2.1
		l0.1-0.2c0.2-0.8,0.4-2.4-1.7-3c-0.9-0.3-2-0.2-2.9,0L123.7,8c1-0.3,2.3-0.3,3.6,0c3.1,0.9,3.3,3.2,2.7,5.2l-1.1,3.8
		c-0.2,0.9-0.4,1.8-0.5,2.5L126.8,19.1z M128,13.8c-2-0.6-4.4-0.9-4.9,1.1c-0.3,1.2,0.3,2,1.3,2.2c1.3,0.4,2.4-0.2,2.9-1
		c0.1-0.2,0.2-0.4,0.3-0.6L128,13.8z"/>
	<path class="st0" d="M133.5,13.7c0.4-1.2,0.8-2.2,1.1-3.1l1.6,0.6l-0.7,2l0.1,0c1-1.2,2.4-1.6,3.6-1.1c0.2,0.1,0.3,0.2,0.5,0.3
		L139,14c-0.2-0.1-0.3-0.2-0.6-0.3c-1.3-0.5-2.5,0.1-3.3,1.4c-0.1,0.2-0.3,0.5-0.4,0.8l-2,5.2l-1.8-0.7L133.5,13.7z"/>
	<path class="st0" d="M145.7,12l-1.3,2.7l2.5,1.2l-0.6,1.3l-2.5-1.2l-2.5,5.1c-0.6,1.2-0.6,2,0.4,2.5c0.5,0.2,0.8,0.3,1.1,0.4
		l-0.5,1.3c-0.4,0-1-0.2-1.6-0.5c-0.8-0.4-1.3-1-1.5-1.6c-0.2-0.7,0-1.7,0.5-2.8l2.5-5.2l-1.5-0.7l0.6-1.3l1.5,0.7l1.1-2.3L145.7,12
		z"/>
	<path class="st0" d="M147.9,19.7c0.6-0.9,1-1.7,1.4-2.5l1.4,0.9l-0.8,1.5l0,0c1-0.6,2.5-0.8,4,0.2c1.2,0.8,2.7,2.7,0.8,5.8
		l-3.3,5.3l-1.6-1l3.2-5.2c0.9-1.4,1.1-3-0.4-3.9c-1.1-0.7-2.4-0.4-3.2,0.3c-0.2,0.2-0.4,0.4-0.6,0.7l-3.4,5.4l-1.6-1L147.9,19.7z"
		/>
	<path class="st0" d="M157.5,29.4c-1.6,2-1,3.9,0.5,5.1c1.1,0.9,1.9,1.2,2.6,1.4l-0.6,1.3c-0.7-0.2-1.8-0.6-3.1-1.7
		c-2.5-2-2.7-4.9-0.7-7.4c2-2.5,5-3.2,7.4-1.3c2.7,2.2,1.5,5.1,0.2,6.6c-0.2,0.3-0.5,0.5-0.6,0.7L157.5,29.4z M162.8,31.9
		c0.8-0.9,1.6-2.7-0.1-4.1c-1.5-1.2-3.3-0.4-4.2,0.6L162.8,31.9z"/>
	<path class="st0" d="M166.8,34.3c0.9-0.9,1.6-1.7,2.3-2.4l1.2,1.2l-1.4,1.5l0.1,0.1c1.3-0.7,2.8-0.5,3.7,0.4
		c0.2,0.2,0.2,0.3,0.3,0.4l-1.3,1.3c-0.1-0.2-0.2-0.3-0.4-0.5c-1-1-2.4-0.9-3.6-0.1c-0.2,0.2-0.5,0.3-0.7,0.6l-4,4l-1.3-1.3
		L166.8,34.3z"/>
	<path class="st0" d="M167.8,42.8c0.1,0.7,0.4,1.7,1.1,2.4c0.9,1.1,1.9,1.1,2.5,0.5c0.7-0.6,0.7-1.3,0.2-2.8
		c-0.7-1.9-0.5-3.2,0.5-4.1c1.3-1.1,3.2-1,4.7,0.8c0.7,0.8,1.1,1.7,1.2,2.4l-1.4,0.5c-0.1-0.5-0.3-1.3-0.9-2
		c-0.7-0.9-1.6-0.9-2.2-0.4c-0.7,0.6-0.6,1.3-0.1,2.7c0.7,1.8,0.6,3.2-0.6,4.2c-1.4,1.2-3.3,0.9-5-1c-0.7-0.9-1.2-1.9-1.4-2.7
		L167.8,42.8z"/>
</g>
<g>
	<path class="st0" d="M192.3,150c-0.4,1.1-1,2.3-1.8,3.6c-1.4,2.4-2.9,3.7-4.6,4.2c-1.7,0.5-3.5,0.3-5.6-0.9
		c-2.1-1.2-3.4-2.8-3.9-4.7c-0.5-1.9,0-4.2,1.5-6.7c0.7-1.2,1.3-2.1,1.9-2.9L192.3,150z M180.1,145c-0.3,0.4-0.7,1-1.1,1.6
		c-2,3.5-1.2,6.5,2.2,8.5c3,1.8,5.9,1.2,7.9-2.3c0.5-0.8,0.8-1.5,1-2L180.1,145z"/>
	<path class="st0" d="M172.3,154.6l8.5,6.3l-1.1,1.5l-8.5-6.3L172.3,154.6z M181.9,164.3c-0.5-0.4-0.7-1.1-0.2-1.7
		c0.4-0.5,1.1-0.6,1.6-0.2c0.5,0.4,0.7,1.1,0.2,1.7C183.1,164.7,182.4,164.7,181.9,164.3z"/>
	<path class="st0" d="M171.3,172.2c-0.5-0.5-1.1-1.1-2.1-2l-4.5-4.1c-1.8-1.6-2.6-3-2.6-4.3c0-1.4,0.7-2.7,1.6-3.7
		c0.8-0.9,2-1.8,3-2l0.8,1.3c-0.8,0.2-1.8,0.8-2.7,1.7c-1.3,1.5-1.5,3.2,0.5,5l0.9,0.8l0,0c-0.3-1.1-0.2-2.5,0.9-3.7
		c1.7-1.9,4.7-1.8,6.8,0.1c2.7,2.4,2.6,5.5,1,7.3c-1.2,1.4-2.6,1.5-3.6,1.2l0,0l1.1,1.1L171.3,172.2z M169.5,168
		c0.2,0.2,0.5,0.4,0.7,0.5c1.1,0.5,2.4,0.4,3.3-0.6c1.2-1.4,1-3.4-0.9-5c-1.5-1.4-3.5-1.8-4.9-0.2c-0.8,0.9-1,2.2-0.3,3.3
		c0.2,0.3,0.4,0.6,0.7,0.8L169.5,168z"/>
	<path class="st0" d="M161.4,166.9l7.1,7.8l-1.4,1.3l-7.1-7.8L161.4,166.9z M169,178.3c-0.5-0.5-0.5-1.2,0.1-1.7
		c0.5-0.5,1.2-0.4,1.6,0.1c0.5,0.5,0.4,1.2-0.1,1.7C170.2,178.9,169.5,178.8,169,178.3z"/>
	<path class="st0" d="M164.5,182.2l-1.9-2.4l-2.1,1.7l-0.9-1.1l2.1-1.7l-3.6-4.4c-0.8-1-1.6-1.4-2.4-0.7c-0.4,0.3-0.6,0.6-0.8,0.8
		l-1-1.1c0.2-0.4,0.6-0.8,1.2-1.3c0.7-0.6,1.4-0.8,2.1-0.7c0.8,0.1,1.5,0.7,2.3,1.7l3.6,4.5l1.3-1l0.9,1.1l-1.3,1l1.6,2L164.5,182.2
		z"/>
	<path class="st0" d="M147.6,177.6l0.9,1l0.1,0c0-1,0.6-2.3,1.8-3.1c1.8-1.2,3.5-0.5,4.4,0.8c1.4,2.1,0.3,4.5-3.2,6.8l0.1,0.2
		c0.5,0.7,1.5,1.9,3.3,0.7c0.8-0.5,1.5-1.4,1.9-2.2l1.1,0.8c-0.4,1-1.3,2-2.4,2.7c-2.7,1.8-4.6,0.4-5.7-1.4l-2.2-3.3
		c-0.5-0.8-1-1.5-1.5-2L147.6,177.6z M150.7,182c1.8-1.1,3.6-2.7,2.4-4.4c-0.7-1-1.7-1.1-2.5-0.5c-1.1,0.8-1.4,2-1.2,2.9
		c0.1,0.2,0.1,0.4,0.2,0.6L150.7,182z"/>
	<path class="st0" d="M151.1,193.4l-1.7,0.9l-7.3-13.6l1.7-0.9L151.1,193.4z"/>
	<path class="st0" d="M140.3,197.7c-1,0.5-2.3,1.1-3.7,1.6c-2.6,0.9-4.6,0.9-6.2,0.2c-1.6-0.7-2.9-2-3.7-4.3
		c-0.8-2.3-0.7-4.4,0.1-6.1c0.8-1.7,2.7-3.2,5.4-4.1c1.3-0.4,2.4-0.8,3.3-1L140.3,197.7z M134.2,186.1c-0.5,0.1-1.1,0.3-1.8,0.5
		c-3.8,1.3-5.2,4.2-3.8,8c1.1,3.3,3.7,4.7,7.5,3.4c0.9-0.3,1.6-0.7,2-0.9L134.2,186.1z"/>
	<path class="st0" d="M122.1,193.4c-0.6-2.5-2.4-3.3-4.3-2.9c-1.3,0.3-2.1,0.7-2.8,1.1l-0.6-1.3c0.6-0.4,1.7-1,3.3-1.3
		c3.2-0.6,5.5,1.1,6.1,4.2c0.6,3.1-0.7,5.9-3.7,6.5c-3.4,0.7-4.9-2.1-5.2-4c-0.1-0.4-0.1-0.7-0.1-0.9L122.1,193.4z M116.9,195.9
		c0.2,1.2,1.1,3,3.2,2.5c1.9-0.4,2.4-2.3,2.3-3.6L116.9,195.9z"/>
	<path class="st0" d="M112.3,192.2c-0.6-0.3-1.6-0.6-2.6-0.5c-1.4,0.1-2,0.9-1.9,1.7c0.1,0.9,0.7,1.4,2.1,1.8c1.9,0.5,2.9,1.5,3,2.7
		c0.2,1.7-1.1,3.2-3.3,3.4c-1.1,0.1-2-0.1-2.6-0.4l0.4-1.4c0.4,0.2,1.2,0.5,2.2,0.4c1.1-0.1,1.7-0.8,1.6-1.6
		c-0.1-0.9-0.7-1.2-2.2-1.6c-1.9-0.5-2.9-1.4-3-2.9c-0.2-1.8,1.1-3.3,3.6-3.5c1.2-0.1,2.2,0.1,3,0.4L112.3,192.2z"/>
	<path class="st0" d="M101.5,204.3c0-0.7,0.4-1.2,1.2-1.2c0.7,0,1.2,0.5,1.2,1.2c0,0.7-0.5,1.2-1.2,1.2
		C102,205.5,101.5,205,101.5,204.3z M103.5,190.8l0.2,10.5l-1.9,0l-0.2-10.5L103.5,190.8z"/>
	<path class="st0" d="M88.8,200.7c0.1-0.8,0.2-1.6,0.3-2.9l0.5-6.1c0.2-2.4,0.8-3.9,1.9-4.7c1.1-0.9,2.6-1.1,3.9-1
		c1.3,0.1,2.6,0.5,3.4,1.2l-0.6,1.4c-0.7-0.5-1.7-1-3-1.1c-2-0.2-3.5,0.7-3.7,3.4l-0.1,1.2l0,0c0.7-0.9,1.9-1.6,3.5-1.5
		c2.6,0.2,4.3,2.6,4.1,5.5c-0.3,3.6-2.8,5.4-5.2,5.2c-1.8-0.1-2.7-1.2-3.1-2.1l0,0l-0.2,1.6L88.8,200.7z M91.1,196.7
		c0,0.3,0,0.6,0,0.9c0.3,1.1,1.1,2.1,2.5,2.2c1.8,0.1,3.3-1.3,3.5-3.7c0.2-2.1-0.7-3.9-2.8-4c-1.2-0.1-2.3,0.6-2.8,1.7
		c-0.1,0.3-0.2,0.7-0.2,1L91.1,196.7z"/>
	<path class="st0" d="M85.6,197.3c-0.2,1.1-0.4,1.9-0.5,2.8l-1.7-0.4l0.3-1.7l0,0c-0.7,0.9-2.1,1.6-3.8,1.2
		c-1.4-0.3-3.5-1.6-2.7-5.2l1.3-6.2l1.9,0.4l-1.3,5.9c-0.4,1.7,0,3.2,1.7,3.6c1.2,0.3,2.4-0.4,2.9-1.4c0.1-0.2,0.2-0.5,0.3-0.8
		l1.3-6.2l1.9,0.4L85.6,197.3z"/>
	<path class="st0" d="M67.6,189.1l3.2-3.7l1.8,0.8l-10.3,11.6l-2.1-0.9l1.1-15.5l1.9,0.8l-0.4,4.9L67.6,189.1z M62.6,188.6l-0.3,4.5
		c-0.1,1-0.2,1.9-0.3,2.8l0,0c0.5-0.7,1.1-1.4,1.7-2.2l3-3.4L62.6,188.6z"/>
	<path class="st0" d="M46.9,185.1c0.4-0.6,0.9-1.3,1.6-2.4l3.1-5.3c1.2-2.1,2.4-3.1,3.8-3.4c1.4-0.3,2.8,0.2,3.9,0.9
		c1.1,0.6,2.1,1.6,2.6,2.5l-1.2,1c-0.4-0.7-1.1-1.6-2.2-2.3c-1.7-1-3.4-0.9-4.8,1.4l-0.6,1l0,0c1-0.5,2.4-0.6,3.8,0.2
		c2.2,1.3,2.7,4.2,1.2,6.7c-1.8,3.1-4.9,3.6-6.9,2.4c-1.6-0.9-1.9-2.3-1.9-3.3l0,0l-0.9,1.3L46.9,185.1z M50.8,182.6
		c-0.2,0.3-0.3,0.5-0.4,0.8c-0.3,1.1,0.1,2.4,1.3,3.1c1.6,0.9,3.5,0.3,4.7-1.8c1.1-1.8,1-3.8-0.7-4.9c-1-0.6-2.3-0.5-3.3,0.3
		c-0.3,0.2-0.5,0.5-0.7,0.8L50.8,182.6z"/>
	<path class="st0" d="M46.3,177.8c1.6-2.1,0.9-3.9-0.6-5.1c-1.1-0.8-1.9-1.2-2.6-1.4l0.6-1.3c0.7,0.2,1.8,0.6,3.2,1.6
		c2.6,2,2.8,4.9,0.8,7.4c-2,2.5-5,3.3-7.4,1.4c-2.7-2.1-1.6-5.1-0.4-6.6c0.2-0.3,0.5-0.5,0.6-0.7L46.3,177.8z M41,175.4
		c-0.8,0.9-1.5,2.8,0.2,4.1c1.5,1.2,3.3,0.3,4.2-0.6L41,175.4z"/>
	<path class="st0" d="M36.5,173.4c-0.8,0.8-1.4,1.4-2,2.1l-1.2-1.2l1.2-1.3l0,0c-1.1,0.3-2.6,0.2-3.9-1.1c-1-1-2-3.3,0.6-5.8
		l4.5-4.4l1.3,1.4l-4.3,4.3c-1.2,1.2-1.8,2.6-0.5,3.9c0.9,0.9,2.2,1,3.2,0.5c0.2-0.1,0.5-0.3,0.7-0.5l4.5-4.5L42,168L36.5,173.4z"/>
	<path class="st0" d="M29.1,153.8c0.5,0.2,1.5,0.9,2.3,2c2,2.5,1.5,5.5-1,7.4c-2.6,2-5.8,1.7-7.9-1c-0.7-0.9-1.1-1.9-1.2-2.4
		l1.4-0.6c0.1,0.5,0.3,1.2,1,2.1c1.5,1.9,3.7,1.8,5.4,0.5c1.9-1.5,2.2-3.7,0.9-5.3c-0.7-0.9-1.3-1.3-1.9-1.5L29.1,153.8z"/>
	<path class="st0" d="M18.8,156.6l4.1-5.2c0.5-0.6,1-1.2,1.5-1.7l0,0c-0.6,0.2-1.4,0.4-2.2,0.6l-6.4,1.4l-1.1-1.7l7.9-1.4
		c3.8-0.7,5.9-0.9,7.5-0.3c1.2,0.4,2,1,2.3,1.4l-1.1,1.2c-0.4-0.3-1-0.7-1.7-0.9c-0.6-0.2-1.6-0.4-2.7-0.3c-0.2,0-0.4,0.1-0.5,0.1
		c-0.1,0.1-0.2,0.2-0.4,0.4l-6.3,8.4L18.8,156.6z"/>
</g>
</svg>
