<?xml version="1.0" encoding="utf-8"?>
<!-- Generator: Adobe Illustrator 25.1.0, SVG Export Plug-In . SVG Version: 6.00 Build 0)  -->
<svg version="1.1" id="Layer_1" xmlns="http://www.w3.org/2000/svg" xmlns:xlink="http://www.w3.org/1999/xlink" x="0px" y="0px"
	 viewBox="0 0 188.8 27.3" style="enable-background:new 0 0 188.8 27.3;" xml:space="preserve">
<desc>Created with Sketch.</desc>
<g>
	<path d="M6.9,21.9c-2.1,0-3.7-0.6-4.9-1.9c-1.2-1.2-1.8-3.1-1.8-5.6V4.1h2.2v10.4c0,1.8,0.4,3.1,1.1,4c0.7,0.9,1.8,1.3,3.3,1.3
		c1.4,0,2.5-0.4,3.3-1.3c0.8-0.9,1.1-2.2,1.1-4V4.1h2.2v10.3c0,2.5-0.6,4.3-1.8,5.6C10.6,21.3,8.9,21.9,6.9,21.9z"/>
	<path d="M27.4,21.6h-2.1V14c0-1.3-0.2-2.2-0.7-2.7c-0.5-0.5-1.2-0.8-2.1-0.8c-0.5,0-0.9,0.1-1.3,0.3c-0.4,0.2-0.7,0.5-1,0.8
		c-0.3,0.3-0.5,0.7-0.6,1.1c-0.2,0.4-0.2,0.9-0.2,1.4v7.5h-2.1V8.9h2.1l-0.2,2.2h0.1c0.1-0.3,0.3-0.6,0.5-0.9s0.5-0.6,0.8-0.8
		c0.3-0.2,0.7-0.4,1.1-0.6c0.4-0.2,0.9-0.2,1.5-0.2c1.3,0,2.4,0.4,3.2,1.3c0.8,0.8,1.2,2.1,1.2,3.8V21.6z"/>
	<path d="M30.9,4.1h2.2v2.6h-2.2V4.1z M31,8.9h2.1v12.7H31V8.9z"/>
	<path d="M41.8,21.9c-0.9,0-1.7-0.2-2.4-0.5c-0.7-0.3-1.3-0.8-1.8-1.4c-0.5-0.6-0.9-1.3-1.1-2.1c-0.3-0.8-0.4-1.7-0.4-2.7
		s0.1-1.8,0.4-2.7c0.3-0.8,0.7-1.5,1.1-2.1c0.5-0.6,1.1-1.1,1.8-1.4c0.7-0.3,1.5-0.5,2.4-0.5c0.9,0,1.7,0.2,2.4,0.5
		c0.7,0.3,1.3,0.8,1.8,1.4c0.5,0.6,0.9,1.3,1.1,2.1c0.3,0.8,0.4,1.7,0.4,2.7s-0.1,1.8-0.4,2.7c-0.3,0.8-0.7,1.5-1.1,2.1
		c-0.5,0.6-1.1,1.1-1.8,1.4C43.5,21.8,42.7,21.9,41.8,21.9z M38.2,15.2c0,0.7,0.1,1.3,0.2,1.9c0.2,0.6,0.4,1.1,0.7,1.5
		c0.3,0.4,0.7,0.8,1.1,1c0.5,0.3,1,0.4,1.6,0.4c0.6,0,1.1-0.1,1.6-0.4c0.5-0.3,0.8-0.6,1.1-1c0.3-0.4,0.5-1,0.7-1.5
		c0.2-0.6,0.2-1.2,0.2-1.9c0-0.7-0.1-1.3-0.2-1.9c-0.2-0.6-0.4-1.1-0.7-1.5s-0.7-0.8-1.1-1c-0.5-0.3-1-0.4-1.6-0.4
		c-0.6,0-1.1,0.1-1.6,0.4c-0.5,0.3-0.8,0.6-1.1,1c-0.3,0.4-0.5,1-0.7,1.5C38.2,14,38.2,14.6,38.2,15.2z"/>
	<path d="M60.8,21.6h-2.1V14c0-1.3-0.2-2.2-0.7-2.7c-0.5-0.5-1.2-0.8-2.1-0.8c-0.5,0-0.9,0.1-1.3,0.3c-0.4,0.2-0.7,0.5-1,0.8
		c-0.3,0.3-0.5,0.7-0.6,1.1c-0.2,0.4-0.2,0.9-0.2,1.4v7.5h-2.1V8.9h2.1l-0.2,2.2h0.1c0.1-0.3,0.3-0.6,0.5-0.9s0.5-0.6,0.8-0.8
		C54.2,9.2,54.5,9,55,8.8c0.4-0.2,0.9-0.2,1.5-0.2c1.3,0,2.4,0.4,3.2,1.3c0.8,0.8,1.2,2.1,1.2,3.8V21.6z"/>
	<path d="M75.6,13c0.5,0.9,1.1,1.8,1.7,2.7c0.6,0.9,1.2,1.6,1.8,2.2c0.5-0.7,1-1.5,1.4-2.6c0.4-1.1,0.6-2.3,0.7-3.8l2,1.2
		c-0.2,1.2-0.5,2.4-1,3.4c-0.5,1.1-1.1,2.1-1.9,3c0.2,0.2,0.5,0.5,0.8,0.7c0.3,0.2,0.7,0.3,1,0.3c0.4,0,0.7-0.1,0.9-0.4
		s0.3-0.6,0.4-0.9l1.3,1.7c-0.3,0.3-0.6,0.7-1,0.9c-0.4,0.3-0.9,0.4-1.6,0.4c-0.8,0-1.4-0.1-1.9-0.4c-0.5-0.3-0.9-0.6-1.3-0.9
		c-0.5,0.4-1.1,0.7-1.8,1c-0.7,0.3-1.4,0.4-2.1,0.4c-0.7,0-1.4-0.1-2.1-0.3c-0.7-0.2-1.2-0.5-1.7-0.9c-0.5-0.4-0.9-0.9-1.2-1.5
		c-0.3-0.6-0.4-1.3-0.4-2c0-0.6,0.1-1.2,0.3-1.6c0.2-0.5,0.5-0.9,0.9-1.3c0.4-0.4,0.7-0.7,1.2-1.1c0.4-0.3,0.8-0.6,1.3-0.8
		c-0.3-0.7-0.5-1.4-0.7-2.1c-0.2-0.7-0.3-1.4-0.3-2c0-0.6,0.1-1.2,0.3-1.7c0.2-0.5,0.5-1,0.9-1.4c0.4-0.4,0.8-0.7,1.3-0.9
		c0.5-0.2,1.1-0.3,1.7-0.3c0.5,0,1,0.1,1.5,0.3c0.5,0.2,0.9,0.4,1.2,0.7s0.6,0.7,0.8,1.1s0.3,0.9,0.3,1.5C80.1,8,80,8.5,79.8,9
		c-0.2,0.5-0.6,1-1,1.4c-0.4,0.5-0.9,0.9-1.5,1.3C76.8,12.2,76.2,12.6,75.6,13z M77.6,19.3c-0.7-0.8-1.4-1.6-2.1-2.6
		c-0.7-0.9-1.3-1.9-1.8-2.9c-0.6,0.4-1.1,0.9-1.5,1.4c-0.4,0.5-0.6,1.1-0.6,1.9c0,0.5,0.1,0.9,0.3,1.3c0.2,0.4,0.4,0.7,0.8,0.9
		c0.3,0.3,0.7,0.5,1.1,0.6c0.4,0.1,0.8,0.2,1.3,0.2c0.5,0,1-0.1,1.4-0.2C76.9,19.7,77.3,19.5,77.6,19.3z M74.1,8.2
		c0,0.5,0.1,1,0.2,1.6c0.1,0.6,0.3,1.1,0.6,1.7c0.4-0.2,0.7-0.5,1.1-0.8c0.4-0.3,0.7-0.6,1-0.9c0.3-0.3,0.6-0.7,0.8-1.1
		C78,8.4,78.1,8,78.1,7.5c0-0.6-0.2-1-0.5-1.4c-0.3-0.4-0.8-0.5-1.3-0.5c-0.7,0-1.2,0.2-1.6,0.7C74.3,6.8,74.1,7.5,74.1,8.2z"/>
	<path d="M93,4.1h6.9c1.9,0,3.4,0.4,4.5,1.3c1.1,0.9,1.6,2.1,1.6,3.8s-0.5,2.9-1.6,3.8c-1.1,0.9-2.6,1.4-4.5,1.4h-4.6v7.3H93V4.1z
		 M103.7,9.2c0-1.1-0.3-1.8-0.9-2.3s-1.5-0.7-2.6-0.7h-5v6.2h5c1.1,0,2-0.3,2.6-0.8C103.4,11,103.7,10.2,103.7,9.2z"/>
	<path d="M113.2,10.4c-0.5,0-1,0.1-1.4,0.3s-0.7,0.4-1,0.7c-0.3,0.3-0.5,0.7-0.7,1.1s-0.3,0.8-0.4,1.3l-2-1.2
		c0.2-0.6,0.4-1.1,0.7-1.6c0.3-0.5,0.7-0.9,1.2-1.3c0.5-0.4,1-0.6,1.6-0.8c0.6-0.2,1.2-0.3,1.9-0.3c0.7,0,1.3,0.1,1.9,0.3
		c0.6,0.2,1.1,0.4,1.5,0.8c0.4,0.4,0.8,0.8,1,1.4c0.3,0.6,0.4,1.2,0.4,2v5.8c0,0.7,0,1.3,0.1,1.6c0.1,0.4,0.1,0.7,0.2,1.1h-1.7
		c-0.2-0.4-0.3-0.7-0.4-0.9c-0.1-0.2-0.1-0.5-0.2-0.8h-0.1c-0.2,0.2-0.3,0.5-0.6,0.7c-0.2,0.2-0.5,0.5-0.8,0.6
		c-0.3,0.2-0.7,0.4-1.1,0.5c-0.4,0.1-0.9,0.2-1.4,0.2c-1.2,0-2.1-0.3-2.9-1c-0.8-0.6-1.1-1.6-1.1-2.8c0-0.7,0.1-1.2,0.4-1.7
		c0.3-0.4,0.7-0.8,1.1-1.1c0.5-0.3,1-0.5,1.6-0.7c0.6-0.2,1.1-0.3,1.7-0.4c1-0.2,1.7-0.4,2.2-0.6c0.5-0.2,0.8-0.6,0.8-1.1
		c0-0.7-0.3-1.2-0.8-1.6C114.6,10.6,113.9,10.4,113.2,10.4z M115.9,14.7c-0.2,0.3-0.5,0.5-1,0.7c-0.5,0.2-1,0.4-1.7,0.5
		c-0.4,0.1-0.8,0.2-1.1,0.3c-0.4,0.1-0.7,0.2-1,0.4c-0.3,0.2-0.5,0.4-0.7,0.6c-0.2,0.3-0.3,0.6-0.3,0.9c0,0.6,0.2,1,0.6,1.4
		c0.4,0.4,1,0.5,1.7,0.5c0.5,0,0.9-0.1,1.3-0.2c0.4-0.2,0.8-0.4,1.1-0.7c0.3-0.3,0.6-0.7,0.8-1.1c0.2-0.4,0.3-0.9,0.3-1.4V14.7z"/>
	<path d="M121.5,8.9h2.1l-0.2,2.2h0.1c0.3-0.7,0.6-1.3,1.2-1.7c0.5-0.5,1.2-0.7,1.9-0.7c0.4,0,0.8,0.1,1.2,0.3
		c0.4,0.2,0.7,0.4,0.9,0.7c0.3,0.3,0.5,0.6,0.6,1c0.1,0.4,0.2,0.8,0.2,1.3c0,0.2,0,0.4,0,0.5c0,0.2,0,0.3,0,0.4c0,0.1,0,0.3,0,0.4
		l-2.1,1.2c0-0.2,0.1-0.4,0.1-0.6c0-0.2,0.1-0.4,0.1-0.6c0-0.2,0-0.4,0-0.6c0-0.6-0.1-1-0.4-1.4c-0.3-0.4-0.7-0.6-1.2-0.6
		c-0.4,0-0.8,0.1-1.1,0.3c-0.3,0.2-0.5,0.5-0.7,0.8c-0.2,0.3-0.3,0.7-0.4,1.2c-0.1,0.4-0.1,0.9-0.1,1.4v7.3h-2.1V8.9z"/>
	<path d="M138.9,20.6c-0.2,0.3-0.6,0.6-1,0.9c-0.5,0.3-1,0.4-1.7,0.4c-0.4,0-0.8-0.1-1.2-0.2c-0.4-0.1-0.7-0.3-0.9-0.5
		c-0.3-0.3-0.5-0.6-0.6-1c-0.2-0.4-0.2-1-0.2-1.6v-7.9h-2.3V8.9h2.3V6l2.1-1.3v4.2h3.3v1.8h-3.3v7.8c0,0.6,0.1,1,0.3,1.3
		c0.2,0.2,0.5,0.4,0.8,0.4c0.4,0,0.6-0.1,0.9-0.4c0.2-0.3,0.4-0.5,0.5-0.8L138.9,20.6z"/>
	<path d="M151.3,21.6h-2.1V14c0-1.3-0.2-2.2-0.7-2.7c-0.5-0.5-1.2-0.8-2.1-0.8c-0.5,0-0.9,0.1-1.3,0.3c-0.4,0.2-0.7,0.5-1,0.8
		c-0.3,0.3-0.5,0.7-0.6,1.1c-0.2,0.4-0.2,0.9-0.2,1.4v7.5H141V8.9h2.1l-0.2,2.2h0.1c0.1-0.3,0.3-0.6,0.5-0.9
		c0.2-0.3,0.5-0.6,0.8-0.8c0.3-0.2,0.7-0.4,1.1-0.6c0.4-0.2,0.9-0.2,1.5-0.2c1.3,0,2.4,0.4,3.2,1.3c0.8,0.8,1.2,2.1,1.2,3.8V21.6z"
		/>
	<path d="M156.2,15.8c0,0.6,0.1,1.2,0.3,1.7c0.2,0.5,0.4,1,0.7,1.4c0.3,0.4,0.7,0.7,1.1,0.9c0.5,0.2,1,0.3,1.5,0.3
		c0.5,0,0.9-0.1,1.2-0.2c0.4-0.2,0.7-0.4,1-0.6c0.3-0.3,0.5-0.6,0.7-0.9s0.3-0.7,0.4-1.1l2,1.2c-0.2,0.5-0.4,0.9-0.8,1.3
		c-0.3,0.4-0.7,0.8-1.1,1.1c-0.4,0.3-0.9,0.6-1.5,0.8c-0.6,0.2-1.2,0.3-1.8,0.3c-0.9,0-1.7-0.2-2.4-0.5c-0.7-0.3-1.3-0.8-1.8-1.4
		c-0.5-0.6-0.9-1.3-1.1-2.1c-0.3-0.8-0.4-1.7-0.4-2.7c0-1,0.1-1.8,0.4-2.7c0.3-0.8,0.7-1.5,1.2-2.1c0.5-0.6,1.1-1.1,1.8-1.4
		c0.7-0.3,1.5-0.5,2.3-0.5c0.8,0,1.6,0.1,2.2,0.4c0.7,0.3,1.2,0.7,1.7,1.2c0.5,0.5,0.8,1.1,1.1,1.8s0.4,1.5,0.4,2.3
		c0,0.2,0,0.4,0,0.6s0,0.3,0,0.5c0,0.2-0.1,0.3-0.1,0.4H156.2z M159.9,10.3c-0.5,0-1,0.1-1.4,0.3c-0.4,0.2-0.8,0.5-1.1,0.8
		c-0.3,0.3-0.6,0.7-0.7,1.2c-0.2,0.4-0.3,0.9-0.4,1.5h6.9c0-0.5-0.1-0.9-0.2-1.4c-0.1-0.4-0.3-0.8-0.6-1.2c-0.3-0.3-0.6-0.6-1-0.8
		C160.9,10.4,160.4,10.3,159.9,10.3z"/>
	<path d="M168.1,8.9h2.1l-0.2,2.2h0.1c0.3-0.7,0.6-1.3,1.2-1.7c0.5-0.5,1.2-0.7,1.9-0.7c0.4,0,0.8,0.1,1.2,0.3s0.7,0.4,0.9,0.7
		c0.3,0.3,0.5,0.6,0.6,1c0.1,0.4,0.2,0.8,0.2,1.3c0,0.2,0,0.4,0,0.5c0,0.2,0,0.3,0,0.4c0,0.1,0,0.3,0,0.4l-2.1,1.2
		c0-0.2,0.1-0.4,0.1-0.6c0-0.2,0.1-0.4,0.1-0.6c0-0.2,0-0.4,0-0.6c0-0.6-0.1-1-0.4-1.4c-0.3-0.4-0.7-0.6-1.2-0.6
		c-0.4,0-0.8,0.1-1.1,0.3c-0.3,0.2-0.5,0.5-0.7,0.8c-0.2,0.3-0.3,0.7-0.4,1.2c-0.1,0.4-0.1,0.9-0.1,1.4v7.3h-2.1V8.9z"/>
	<path d="M183.7,20.2c0.7,0,1.2-0.2,1.8-0.5s0.8-0.8,0.8-1.5c0-0.4-0.1-0.7-0.3-0.9c-0.2-0.2-0.5-0.4-0.8-0.6
		c-0.3-0.2-0.7-0.3-1.1-0.4c-0.4-0.1-0.8-0.2-1.3-0.4c-0.5-0.1-1-0.3-1.5-0.5c-0.5-0.2-1-0.4-1.4-0.7c-0.4-0.3-0.8-0.6-1.1-1.1
		c-0.3-0.4-0.4-0.9-0.4-1.5c0-0.6,0.1-1.1,0.4-1.5c0.2-0.4,0.6-0.8,1-1.1c0.4-0.3,0.9-0.5,1.4-0.7c0.5-0.2,1.1-0.3,1.6-0.3
		c0.6,0,1.2,0.1,1.8,0.2c0.6,0.2,1.1,0.4,1.6,0.7c0.5,0.3,0.9,0.6,1.3,1c0.4,0.4,0.6,0.9,0.8,1.4l-2,1.2c-0.1-0.4-0.2-0.7-0.4-1
		c-0.2-0.3-0.4-0.6-0.7-0.9c-0.3-0.3-0.6-0.5-1-0.6c-0.4-0.2-0.8-0.2-1.3-0.2c-0.3,0-0.6,0-0.9,0.1c-0.3,0.1-0.5,0.2-0.8,0.3
		c-0.2,0.1-0.4,0.3-0.5,0.6c-0.1,0.2-0.2,0.5-0.2,0.8c0,0.4,0.1,0.6,0.4,0.9c0.2,0.2,0.5,0.4,0.9,0.6c0.4,0.2,0.8,0.3,1.3,0.4
		c0.5,0.1,0.9,0.2,1.4,0.4c0.5,0.2,1,0.4,1.5,0.6c0.5,0.2,0.9,0.5,1.3,0.7c0.4,0.3,0.7,0.6,0.9,1.1c0.2,0.4,0.3,0.9,0.3,1.5
		c0,0.6-0.1,1.1-0.4,1.6c-0.2,0.5-0.6,0.8-1,1.2c-0.4,0.3-0.9,0.6-1.4,0.7c-0.5,0.2-1.1,0.3-1.7,0.3c-1.6,0-3-0.4-4-1.1
		c-1-0.7-1.7-1.7-2.1-2.9l2-1.2c0,0.4,0.2,0.9,0.4,1.3c0.2,0.4,0.4,0.8,0.8,1.1c0.3,0.3,0.7,0.6,1.2,0.8
		C182.5,20.1,183.1,20.2,183.7,20.2z"/>
</g>
</svg>
